<?xml version="1.0" encoding="UTF-8" standalone="no"?>
<!DOCTYPE svg PUBLIC "-//W3C//DTD SVG 1.1//EN"
 "http://www.w3.org/Graphics/SVG/1.1/DTD/svg11.dtd">
<!-- Generated by graphviz version 2.40.1 (20161225.0304)
 -->
<!-- Title: state transitions Pages: 1 -->
<svg width="273pt" height="270pt"
 viewBox="0.00 0.00 273.00 270.00" xmlns="http://www.w3.org/2000/svg" xmlns:xlink="http://www.w3.org/1999/xlink">
<g id="graph0" class="graph" transform="scale(1 1) rotate(0) translate(4 266)">
<title>state transitions</title>
<polygon fill="#ffffff" stroke="transparent" points="-4,4 -4,-266 269,-266 269,4 -4,4"/>
<g id="clust1" class="cluster state regular">
<title>cluster_next_state</title>
<path fill="none" stroke="#000000" stroke-width="2" d="M20,-8C20,-8 245,-8 245,-8 251,-8 257,-14 257,-20 257,-20 257,-242 257,-242 257,-248 251,-254 245,-254 245,-254 20,-254 20,-254 14,-254 8,-248 8,-242 8,-242 8,-20 8,-20 8,-14 14,-8 20,-8"/>
<text text-anchor="start" x="105.3208" y="-235.2" font-family="Helvetica,sans-Serif" font-size="12.00" fill="#000000">next_state</text>
</g>
<!-- next_state -->
<!-- idle -->
<g id="node2" class="node state regular">
<title>idle</title>
<polygon fill="#ffffff" fill-opacity="0.003922" stroke="transparent" stroke-width="2" points="90,-216 34,-216 34,-180 90,-180 90,-216"/>
<text text-anchor="start" x="52.6664" y="-194.2" font-family="Helvetica,sans-Serif" font-size="12.00" fill="#000000">idle</text>
<path fill="none" stroke="#000000" stroke-width="2" d="M46.3333,-181C46.3333,-181 77.6667,-181 77.6667,-181 83.3333,-181 89,-186.6667 89,-192.3333 89,-192.3333 89,-203.6667 89,-203.6667 89,-209.3333 83.3333,-215 77.6667,-215 77.6667,-215 46.3333,-215 46.3333,-215 40.6667,-215 35,-209.3333 35,-203.6667 35,-203.6667 35,-192.3333 35,-192.3333 35,-186.6667 40.6667,-181 46.3333,-181"/>
</g>
<!-- idle&#45;&gt;idle -->
<g id="edge2" class="edge transition">
<title>idle&#45;&gt;idle</title>
<path fill="none" stroke="#000000" d="M90.0183,-202.8247C101.888,-203.1883 112,-201.5801 112,-198 112,-195.5387 107.2205,-194.0094 100.3762,-193.4121"/>
<polygon fill="#000000" stroke="#000000" points="100.0957,-189.9049 90.0183,-193.1753 99.9356,-196.903 100.0957,-189.9049"/>
<text text-anchor="start" x="112" y="-195" font-family="Helvetica,sans-Serif" font-size="10.00" fill="#000000">not (push_button = &#39;1&#39;) &#160;&#160;</text>
</g>
<!-- NewPattern -->
<g id="node3" class="node state regular">
<title>NewPattern</title>
<polygon fill="#ffffff" fill-opacity="0.003922" stroke="transparent" stroke-width="2" points="104,-134 20,-134 20,-98 104,-98 104,-134"/>
<text text-anchor="start" x="30.662" y="-112.2" font-family="Helvetica,sans-Serif" font-size="12.00" fill="#000000">NewPattern</text>
<path fill="none" stroke="#000000" stroke-width="2" d="M32.3333,-99C32.3333,-99 91.6667,-99 91.6667,-99 97.3333,-99 103,-104.6667 103,-110.3333 103,-110.3333 103,-121.6667 103,-121.6667 103,-127.3333 97.3333,-133 91.6667,-133 91.6667,-133 32.3333,-133 32.3333,-133 26.6667,-133 21,-127.3333 21,-121.6667 21,-121.6667 21,-110.3333 21,-110.3333 21,-104.6667 26.6667,-99 32.3333,-99"/>
</g>
<!-- idle&#45;&gt;NewPattern -->
<g id="edge1" class="edge transition">
<title>idle&#45;&gt;NewPattern</title>
<path fill="none" stroke="#000000" d="M62,-179.8015C62,-169.3976 62,-156.1215 62,-144.3768"/>
<polygon fill="#000000" stroke="#000000" points="65.5001,-144.1476 62,-134.1476 58.5001,-144.1476 65.5001,-144.1476"/>
<text text-anchor="start" x="62" y="-154" font-family="Helvetica,sans-Serif" font-size="10.00" fill="#000000">push_button = &#39;1&#39; &#160;&#160;</text>
</g>
<!-- NewPattern&#45;&gt;NewPattern -->
<g id="edge4" class="edge transition">
<title>NewPattern&#45;&gt;NewPattern</title>
<path fill="none" stroke="#000000" d="M104.1623,-120.8604C116.4681,-120.6924 126,-119.0723 126,-116 126,-113.8398 121.2876,-112.3975 114.2119,-111.6732"/>
<polygon fill="#000000" stroke="#000000" points="114.3338,-108.1748 104.1623,-111.1396 113.9626,-115.165 114.3338,-108.1748"/>
<text text-anchor="start" x="126" y="-113" font-family="Helvetica,sans-Serif" font-size="10.00" fill="#000000">not ((clock_1s_done)) &#160;&#160;</text>
</g>
<!-- ledPatternOut -->
<g id="node4" class="node state regular">
<title>ledPatternOut</title>
<polygon fill="#ffffff" fill-opacity="0.003922" stroke="transparent" stroke-width="2" points="118,-52 22,-52 22,-16 118,-16 118,-52"/>
<text text-anchor="start" x="32.9878" y="-30.2" font-family="Helvetica,sans-Serif" font-size="12.00" fill="#000000">ledPatternOut</text>
<path fill="none" stroke="#000000" stroke-width="2" d="M34.3333,-17C34.3333,-17 105.6667,-17 105.6667,-17 111.3333,-17 117,-22.6667 117,-28.3333 117,-28.3333 117,-39.6667 117,-39.6667 117,-45.3333 111.3333,-51 105.6667,-51 105.6667,-51 34.3333,-51 34.3333,-51 28.6667,-51 23,-45.3333 23,-39.6667 23,-39.6667 23,-28.3333 23,-28.3333 23,-22.6667 28.6667,-17 34.3333,-17"/>
</g>
<!-- NewPattern&#45;&gt;ledPatternOut -->
<g id="edge3" class="edge transition">
<title>NewPattern&#45;&gt;ledPatternOut</title>
<path fill="none" stroke="#000000" d="M56.4955,-97.6142C54.6232,-88.9014 53.4273,-78.3726 55.314,-69 55.8147,-66.5129 56.4969,-63.9822 57.2947,-61.4774"/>
<polygon fill="#000000" stroke="#000000" points="60.5803,-62.6838 60.8055,-52.0913 54.0239,-60.2314 60.5803,-62.6838"/>
<text text-anchor="start" x="55" y="-72" font-family="Helvetica,sans-Serif" font-size="10.00" fill="#000000">(clock_1s_done) &#160;&#160;</text>
</g>
<!-- ledPatternOut&#45;&gt;NewPattern -->
<g id="edge5" class="edge transition">
<title>ledPatternOut&#45;&gt;NewPattern</title>
<path fill="none" stroke="#000000" d="M118.1359,-48.8286C134.5215,-56.586 146.7457,-67.3438 138,-81 132.1819,-90.0848 123.3435,-96.8441 113.7267,-101.8626"/>
<polygon fill="#000000" stroke="#000000" points="111.9764,-98.8145 104.3412,-106.1599 114.8906,-105.1791 111.9764,-98.8145"/>
<text text-anchor="start" x="140" y="-72" font-family="Helvetica,sans-Serif" font-size="10.00" fill="#000000">push_button = &#39;1&#39; &#160;&#160;</text>
</g>
<!-- ledPatternOut&#45;&gt;ledPatternOut -->
<g id="edge6" class="edge transition">
<title>ledPatternOut&#45;&gt;ledPatternOut</title>
<path fill="none" stroke="#000000" d="M118.0939,-38.8247C130.5828,-38.5282 140,-36.9199 140,-34 140,-31.9469 135.3443,-30.5423 128.2386,-29.7862"/>
<polygon fill="#000000" stroke="#000000" points="128.2863,-26.2828 118.0939,-29.1753 127.8654,-33.2702 128.2863,-26.2828"/>
<text text-anchor="start" x="140" y="-31" font-family="Helvetica,sans-Serif" font-size="10.00" fill="#000000">not (push_button = &#39;1&#39;) &#160;&#160;</text>
</g>
</g>
</svg>
