<?xml version="1.0" encoding="UTF-8" standalone="no"?>
<!DOCTYPE svg PUBLIC "-//W3C//DTD SVG 1.1//EN"
 "http://www.w3.org/Graphics/SVG/1.1/DTD/svg11.dtd">
<!-- Generated by graphviz version 2.40.1 (20161225.0304)
 -->
<!-- Title: state transitions Pages: 1 -->
<svg width="390pt" height="282pt"
 viewBox="0.00 0.00 390.00 282.00" xmlns="http://www.w3.org/2000/svg" xmlns:xlink="http://www.w3.org/1999/xlink">
<g id="graph0" class="graph" transform="scale(1 1) rotate(0) translate(4 278)">
<title>state transitions</title>
<polygon fill="#ffffff" stroke="transparent" points="-4,4 -4,-278 386,-278 386,4 -4,4"/>
<g id="clust1" class="cluster state regular">
<title>cluster_next_state</title>
<path fill="none" stroke="#000000" stroke-width="2" d="M20,-8C20,-8 362,-8 362,-8 368,-8 374,-14 374,-20 374,-20 374,-254 374,-254 374,-260 368,-266 362,-266 362,-266 20,-266 20,-266 14,-266 8,-260 8,-254 8,-254 8,-20 8,-20 8,-14 14,-8 20,-8"/>
<text text-anchor="start" x="163.8208" y="-247.2" font-family="Helvetica,sans-Serif" font-size="12.00" fill="#000000">next_state</text>
</g>
<!-- next_state -->
<!-- idle -->
<g id="node2" class="node state regular">
<title>idle</title>
<polygon fill="#ffffff" fill-opacity="0.003922" stroke="transparent" stroke-width="2" points="134,-228 78,-228 78,-192 134,-192 134,-228"/>
<text text-anchor="start" x="96.6664" y="-206.2" font-family="Helvetica,sans-Serif" font-size="12.00" fill="#000000">idle</text>
<path fill="none" stroke="#000000" stroke-width="2" d="M90.3333,-193C90.3333,-193 121.6667,-193 121.6667,-193 127.3333,-193 133,-198.6667 133,-204.3333 133,-204.3333 133,-215.6667 133,-215.6667 133,-221.3333 127.3333,-227 121.6667,-227 121.6667,-227 90.3333,-227 90.3333,-227 84.6667,-227 79,-221.3333 79,-215.6667 79,-215.6667 79,-204.3333 79,-204.3333 79,-198.6667 84.6667,-193 90.3333,-193"/>
</g>
<!-- idle&#45;&gt;idle -->
<g id="edge1" class="edge transition">
<title>idle&#45;&gt;idle</title>
<path fill="none" stroke="#000000" d="M134.0183,-214.8247C145.888,-215.1883 156,-213.5801 156,-210 156,-207.5387 151.2205,-206.0094 144.3762,-205.4121"/>
<polygon fill="#000000" stroke="#000000" points="144.0957,-201.9049 134.0183,-205.1753 143.9356,-208.903 144.0957,-201.9049"/>
<text text-anchor="start" x="156" y="-207" font-family="Helvetica,sans-Serif" font-size="10.00" fill="#000000">input = &#39;0&#39; &#160;&#160;</text>
</g>
<!-- output_high -->
<g id="node3" class="node state regular">
<title>output_high</title>
<polygon fill="#ffffff" fill-opacity="0.003922" stroke="transparent" stroke-width="2" points="100,-146 16,-146 16,-110 100,-110 100,-146"/>
<text text-anchor="start" x="26.6506" y="-124.2" font-family="Helvetica,sans-Serif" font-size="12.00" fill="#000000">output_high</text>
<path fill="none" stroke="#000000" stroke-width="2" d="M28.3333,-111C28.3333,-111 87.6667,-111 87.6667,-111 93.3333,-111 99,-116.6667 99,-122.3333 99,-122.3333 99,-133.6667 99,-133.6667 99,-139.3333 93.3333,-145 87.6667,-145 87.6667,-145 28.3333,-145 28.3333,-145 22.6667,-145 17,-139.3333 17,-133.6667 17,-133.6667 17,-122.3333 17,-122.3333 17,-116.6667 22.6667,-111 28.3333,-111"/>
</g>
<!-- idle&#45;&gt;output_high -->
<g id="edge2" class="edge transition">
<title>idle&#45;&gt;output_high</title>
<path fill="none" stroke="#000000" d="M95.3472,-191.8015C89.0086,-180.973 80.8486,-167.033 73.7736,-154.9466"/>
<polygon fill="#000000" stroke="#000000" points="76.6954,-153.0096 68.623,-146.1476 70.6543,-156.5459 76.6954,-153.0096"/>
<text text-anchor="start" x="85" y="-166" font-family="Helvetica,sans-Serif" font-size="10.00" fill="#000000">not (input = &#39;0&#39;) &#160;&#160;</text>
</g>
<!-- output_high&#45;&gt;output_high -->
<g id="edge3" class="edge transition">
<title>output_high&#45;&gt;output_high</title>
<path fill="none" stroke="#000000" d="M100.1623,-132.8604C112.4681,-132.6924 122,-131.0723 122,-128 122,-125.8398 117.2876,-124.3975 110.2119,-123.6732"/>
<polygon fill="#000000" stroke="#000000" points="110.3338,-120.1748 100.1623,-123.1396 109.9626,-127.165 110.3338,-120.1748"/>
<text text-anchor="start" x="122" y="-131" font-family="Helvetica,sans-Serif" font-size="10.00" fill="#000000">input = &#39;1&#39; &#160;&#160;</text>
<text text-anchor="start" x="122" y="-119" font-family="Helvetica,sans-Serif" font-size="10.00" fill="#000000">done_delay = true &#160;&#160;</text>
</g>
<!-- output_low -->
<g id="node4" class="node state regular">
<title>output_low</title>
<polygon fill="#ffffff" fill-opacity="0.003922" stroke="transparent" stroke-width="2" points="194,-52 114,-52 114,-16 194,-16 194,-52"/>
<text text-anchor="start" x="124.99" y="-30.2" font-family="Helvetica,sans-Serif" font-size="12.00" fill="#000000">output_low</text>
<path fill="none" stroke="#000000" stroke-width="2" d="M126.3333,-17C126.3333,-17 181.6667,-17 181.6667,-17 187.3333,-17 193,-22.6667 193,-28.3333 193,-28.3333 193,-39.6667 193,-39.6667 193,-45.3333 187.3333,-51 181.6667,-51 181.6667,-51 126.3333,-51 126.3333,-51 120.6667,-51 115,-45.3333 115,-39.6667 115,-39.6667 115,-28.3333 115,-28.3333 115,-22.6667 120.6667,-17 126.3333,-17"/>
</g>
<!-- output_high&#45;&gt;output_low -->
<g id="edge4" class="edge transition">
<title>output_high&#45;&gt;output_low</title>
<path fill="none" stroke="#000000" d="M76.5098,-109.8759C91.2515,-95.4413 112.0521,-75.074 128.3915,-59.075"/>
<polygon fill="#000000" stroke="#000000" points="130.8506,-61.5656 135.5471,-52.0685 125.9532,-56.564 130.8506,-61.5656"/>
<text text-anchor="start" x="117" y="-84" font-family="Helvetica,sans-Serif" font-size="10.00" fill="#000000">done_delay = true &#160;&#160;</text>
<text text-anchor="start" x="117" y="-72" font-family="Helvetica,sans-Serif" font-size="10.00" fill="#000000">not (input = &#39;1&#39;) &#160;&#160;</text>
</g>
<!-- output_low&#45;&gt;idle -->
<g id="edge5" class="edge transition">
<title>output_low&#45;&gt;idle</title>
<path fill="none" stroke="#000000" d="M194.1564,-45.8217C220.4629,-54.8048 250,-67.8246 250,-81 250,-169 250,-169 250,-169 250,-191.0325 186.8553,-201.864 144.1943,-206.6677"/>
<polygon fill="#000000" stroke="#000000" points="143.6823,-203.2022 134.1065,-207.7358 144.4195,-210.1633 143.6823,-203.2022"/>
<text text-anchor="start" x="250" y="-125" font-family="Helvetica,sans-Serif" font-size="10.00" fill="#000000">not (done_delay = false) &#160;&#160;</text>
</g>
</g>
</svg>
