<?xml version="1.0" standalone="no"?>
<!DOCTYPE svg PUBLIC "-//W3C//DTD SVG 1.1//EN" "http://www.w3.org/Graphics/SVG/1.1/DTD/svg11.dtd">
<!-- Created with WaveDrom -->
<svg xmlns="http://www.w3.org/2000/svg" xmlns:xlink="http://www.w3.org/1999/xlink" width="800" height="70" viewBox="0 0 800 70" class="WaveDrom"><g transform="translate(0.5,0.5)" text-anchor="middle" font-size="14" font-family="sans-serif" font-weight="normal"><g transform="translate(4,21)"><g stroke="black" stroke-width="1" stroke-linecap="round"><line x2="791"/><line y2="31"/><line x2="791" y1="31" y2="31"/><line x1="791" x2="791" y2="31"/><line x1="767" x2="767" y2="3"/><line x1="767" x2="767" y1="31" y2="28"/><line x1="743" x2="743" y2="3"/><line x1="743" x2="743" y1="31" y2="28"/><line x1="719" x2="719" y2="3"/><line x1="719" x2="719" y1="31" y2="28"/><line x1="695" x2="695" y2="3"/><line x1="695" x2="695" y1="31" y2="28"/><line x1="671" x2="671" y2="3"/><line x1="671" x2="671" y1="31" y2="28"/><line x1="647" x2="647" y2="3"/><line x1="647" x2="647" y1="31" y2="28"/><line x1="623" x2="623" y2="3"/><line x1="623" x2="623" y1="31" y2="28"/><line x1="599" x2="599" y2="31"/><line x1="575" x2="575" y2="3"/><line x1="575" x2="575" y1="31" y2="28"/><line x1="551" x2="551" y2="3"/><line x1="551" x2="551" y1="31" y2="28"/><line x1="527" x2="527" y2="3"/><line x1="527" x2="527" y1="31" y2="28"/><line x1="503" x2="503" y2="3"/><line x1="503" x2="503" y1="31" y2="28"/><line x1="479" x2="479" y2="3"/><line x1="479" x2="479" y1="31" y2="28"/><line x1="455" x2="455" y2="3"/><line x1="455" x2="455" y1="31" y2="28"/><line x1="431" x2="431" y2="3"/><line x1="431" x2="431" y1="31" y2="28"/><line x1="407" x2="407" y2="3"/><line x1="407" x2="407" y1="31" y2="28"/><line x1="384" x2="384" y2="3"/><line x1="384" x2="384" y1="31" y2="28"/><line x1="360" x2="360" y2="3"/><line x1="360" x2="360" y1="31" y2="28"/><line x1="336" x2="336" y2="3"/><line x1="336" x2="336" y1="31" y2="28"/><line x1="312" x2="312" y2="3"/><line x1="312" x2="312" y1="31" y2="28"/><line x1="288" x2="288" y2="3"/><line x1="288" x2="288" y1="31" y2="28"/><line x1="264" x2="264" y2="3"/><line x1="264" x2="264" y1="31" y2="28"/><line x1="240" x2="240" y2="3"/><line x1="240" x2="240" y1="31" y2="28"/><line x1="216" x2="216" y2="3"/><line x1="216" x2="216" y1="31" y2="28"/><line x1="192" x2="192" y2="3"/><line x1="192" x2="192" y1="31" y2="28"/><line x1="168" x2="168" y2="3"/><line x1="168" x2="168" y1="31" y2="28"/><line x1="144" x2="144" y2="3"/><line x1="144" x2="144" y1="31" y2="28"/><line x1="120" x2="120" y2="3"/><line x1="120" x2="120" y1="31" y2="28"/><line x1="96" x2="96" y2="3"/><line x1="96" x2="96" y1="31" y2="28"/><line x1="72" x2="72" y2="3"/><line x1="72" x2="72" y1="31" y2="28"/><line x1="48" x2="48" y2="3"/><line x1="48" x2="48" y1="31" y2="28"/><line x1="24" x2="24" y2="3"/><line x1="24" x2="24" y1="31" y2="28"/></g><g><g><rect width="599" height="31" field="undefined" style="fill-opacity:0.1"/></g><g transform="translate(12,-11)"><g transform="translate(767)"><text y="6">0</text></g><g transform="translate(599)"><text y="6">7</text></g><g transform="translate(575)"><text y="6">8</text></g><g transform="translate(0)"><text y="6">32</text></g></g><g transform="translate(12,15)"><g transform="translate(683)"><text y="6"><tspan>LED Pattern</tspan></text></g></g><g transform="translate(12,39)"><g transform="translate(683)"><text y="6"><tspan>DATA</tspan></text></g></g></g></g></g></svg>